# xmcd CD database file
#
# Track frame offsets:
#	150
#	17016
#	35244
#	52253
#	79769
#
# Disc length: 1465 seconds
#
# Revision: 3
# Processed by: cddbd v1.5.1PL2 Copyright (c) Steve Scherf et al.
# Submitted via: cdripper 1,0,32,406
#
DISCID=3e05b705
DTITLE=Jessica Simpson - These Boots Are Made For Walkin'
DYEAR=2005
DGENRE=Country
TTITLE0=These Boots Are Made For Walkin' (Radio Edit)
TTITLE1=With You (Live From Universal Amphitheater)
TTITLE2=Take My Breath Away (Live From Universal Amphitheater)
TTITLE3=I Think I'm In Love With You (Live From Universal Amphitheater)
TTITLE4=Daten-CD
EXTD=http://popartiesten.pagina.nl YEAR: 2005
EXTT0=
EXTT1=
EXTT2=
EXTT3=
EXTT4=
PLAYORDER=
